<?xml version="1.0" encoding="UTF-8"?>
<svg version="1.1" xmlns="http://www.w3.org/2000/svg" width="736" height="736">
<path d="M0 0 C242.88 0 485.76 0 736 0 C736 242.88 736 485.76 736 736 C493.12 736 250.24 736 0 736 C0 493.12 0 250.24 0 0 Z " fill="#782A28" transform="translate(0,0)"/>
<path d="M0 0 C9.9 0 19.8 0 30 0 C30.02578125 2.35511719 30.0515625 4.71023437 30.078125 7.13671875 C30.22093161 27.76659922 30.22093161 27.76659922 32.8125 48.1875 C32.96557617 48.97278076 33.11865234 49.75806152 33.27636719 50.56713867 C36.34498242 64.41692338 44.05097043 75.33209513 56 83 C65.74580616 88.38771936 75.8950312 92.5461952 86.5 95.89453125 C101.02242117 100.48141204 113.94136509 106.01504787 121.609375 119.91796875 C128.88616626 137.02660438 124.76190992 155.44794511 121.57556152 173.02944946 C118.13118842 192.21384733 116.42369001 212.0279679 122 231 C122.20399414 231.70914551 122.40798828 232.41829102 122.61816406 233.14892578 C126.21849444 245.45136473 130.68924006 257.03797553 139 267 C138.67 267.66 138.34 268.32 138 269 C126.02916663 260.05337717 118.50707253 244.98927123 114 231 C113.68345459 230.02361572 113.36690918 229.04723145 113.04077148 228.04125977 C110.46092265 219.61439667 109.18622563 211.72376407 108.75 202.9375 C108.71130798 202.27454926 108.67261597 201.61159851 108.63275146 200.92855835 C108.04016863 190.7086622 107.96268174 180.50865605 108.0234375 170.2734375 C108.02952026 169.08345657 108.03560303 167.89347565 108.04187012 166.66743469 C108.07761809 160.67760483 108.14251374 154.68991842 108.24902344 148.70092773 C108.27319777 146.4738 108.29697832 144.24666795 108.3203125 142.01953125 C108.34733246 140.99584442 108.37435242 139.97215759 108.40219116 138.91744995 C108.44398117 132.920489 108.00310402 129.56191988 104 125 C99.47077951 121.30614006 94.92347066 119.81288377 89.375 118.375 C88.17641357 118.04991455 88.17641357 118.04991455 86.95361328 117.71826172 C82.6046491 116.56899906 78.34361105 115.68971458 73.875 115.125 C57.78868377 112.6998154 41.85912526 102.69332098 32 90 C31.40316406 89.34515625 30.80632812 88.6903125 30.19140625 88.015625 C25.22867477 82.38387338 21.73103831 76.16869328 18.25 69.5625 C17.79012695 68.69278564 17.33025391 67.82307129 16.85644531 66.92700195 C12.15551219 57.77422011 8.95956798 48.16727931 5.875 38.375 C5.49794922 37.20324219 5.49794922 37.20324219 5.11328125 36.0078125 C1.25379365 23.80294073 0 12.91339621 0 0 Z " fill="#D9CCBC" transform="translate(222,229)"/>
<path d="M0 0 C5.28 0 10.56 0 16 0 C16.01417969 2.17335937 16.02835937 4.34671875 16.04296875 6.5859375 C15.80512382 35.04288869 15.80512382 35.04288869 28 60 C28.75410156 60.97582031 29.50820313 61.95164062 30.28515625 62.95703125 C39.4226435 73.85998601 56.25237928 80.36835899 69.25 85.125 C82.52430023 89.98783126 94.31028516 95.58000521 101.0625 108.76171875 C101.371875 109.50035156 101.68125 110.23898437 102 111 C102.54333984 112.28197266 102.54333984 112.28197266 103.09765625 113.58984375 C107.7453009 131.15431898 102.55618951 150.44969474 98.37060547 167.57519531 C93.66435751 187.12064981 92.88259809 207.43867581 98 227 C98.26683594 228.08667969 98.53367187 229.17335938 98.80859375 230.29296875 C102.31108431 243.07316764 108.27765651 254.74513548 116.85009766 264.83984375 C119.45250412 267.95414878 120 268.74082945 120 273 C119.67 273.99 119.34 274.98 119 276 C107.98229777 271.52084068 101.33074134 258.45018956 96.88330078 248.125 C86.41693081 222.94554056 85.97358946 198.33096036 90.9765625 171.6484375 C94.46251356 153.05034888 98.00059435 129.7998656 86.78515625 113.2109375 C77.70527456 101.96539475 65.72653437 98.10564328 52.375 93.75 C34.81137763 87.80824537 16.92695273 80.72453205 7 64 C6.04088718 61.61546537 5.16779218 59.19486878 4.375 56.75 C3.97023438 55.52796875 3.56546875 54.3059375 3.1484375 53.046875 C2.75646135 51.70055086 2.37388966 50.35145866 2 49 C1.80583496 48.33822754 1.61166992 47.67645508 1.41162109 46.99462891 C-0.86733535 37.8284283 -0.21456807 28.24753851 -0.125 18.875 C-0.1149517 17.04167155 -0.10582912 15.20833777 -0.09765625 13.375 C-0.07578564 8.91653366 -0.04135739 4.45832642 0 0 Z " fill="#D9CBBB" transform="translate(255,229)"/>
<path d="M0 0 C3.63 0 7.26 0 11 0 C10.22777732 3.86111339 9.76234327 5.82998267 7.99609375 9.08203125 C7.5897168 9.83991943 7.18333984 10.59780762 6.76464844 11.37866211 C6.32668945 12.18182861 5.88873047 12.98499512 5.4375 13.8125 C4.51305411 15.53838348 3.58989243 17.2649554 2.66796875 18.9921875 C2.21083496 19.84651367 1.75370117 20.70083984 1.28271484 21.58105469 C-0.44631158 24.84165496 -2.10989813 28.13146788 -3.75 31.4375 C-4.05768311 32.05625 -4.36536621 32.675 -4.68237305 33.3125 C-5.37443389 34.70577011 -6.0658783 36.09934652 -6.75683594 37.49316406 C-9.15731381 42.33371921 -11.56406656 47.17113371 -13.97521973 52.00637817 C-14.83513586 53.73248103 -15.69253189 55.45983867 -16.54980469 57.18725586 C-19.82612468 63.75927397 -23.19153169 70.27456791 -26.6328125 76.76171875 C-32.9718362 88.73209415 -38.97210513 100.87091218 -45 113 C-51.38701507 125.85169505 -57.77629348 138.69163845 -64.50524902 151.3684082 C-68.6436447 159.17639857 -72.57944726 167.08096587 -76.5 175 C-80.83871727 183.76367502 -85.23221732 192.48671317 -89.81640625 201.125 C-93.54505187 208.15717142 -97.14979421 215.24296381 -100.68359375 222.375 C-101.15685089 223.32938965 -101.63010803 224.2837793 -102.1177063 225.26708984 C-104.0570912 229.18223625 -105.99376659 233.09868247 -107.92358398 237.01855469 C-109.35909465 239.93170642 -110.80201546 242.84108804 -112.24609375 245.75 C-112.68046249 246.6373584 -113.11483124 247.5247168 -113.56236267 248.43896484 C-114.17429222 249.66800537 -114.17429222 249.66800537 -114.79858398 250.921875 C-115.15258774 251.63956055 -115.50659149 252.35724609 -115.87132263 253.09667969 C-117.03791653 255.06393971 -118.31749119 256.46234369 -120 258 C-123.68296816 254.079421 -124.83519189 251.38373164 -125 246 C-124.01128847 243.05885774 -122.49698346 240.48623323 -120.9375 237.8125 C-120.00559772 236.13345754 -119.0774433 234.45233138 -118.15234375 232.76953125 C-117.64558105 231.85381348 -117.13881836 230.9380957 -116.61669922 229.99462891 C-113.91943545 224.99845896 -111.41566983 219.90689419 -108.89926147 214.81784058 C-104.57465577 206.07572948 -100.1980312 197.36540042 -95.625 188.75 C-91.73780887 181.42553484 -87.98252373 174.04795469 -84.29931641 166.61914062 C-81.37361923 160.72156842 -78.43906229 154.82842101 -75.5 148.9375 C-75.16971802 148.27541534 -74.83943604 147.61333069 -74.49914551 146.93118286 C-70.4064722 138.73365119 -66.2526169 130.58097197 -61.88134766 122.52783203 C-60.0044718 119.00838535 -58.20035515 115.45830592 -56.42578125 111.88671875 C-56.08513641 111.20337967 -55.74449158 110.52004059 -55.39352417 109.81599426 C-54.26138572 107.5444749 -53.13067858 105.27224634 -52 103 C-48.99316761 96.96313517 -45.9842895 90.92729247 -42.97363281 84.89233398 C-42.07740196 83.09484275 -41.18188938 81.2969932 -40.28710938 79.4987793 C-35.19755262 69.27216077 -30.03100109 59.09763655 -24.68177795 49.00427246 C-20.16838959 40.46858432 -15.86111287 31.83278026 -11.5625 23.1875 C-10.76646974 21.59039823 -9.97024611 19.99339283 -9.17382812 18.39648438 C-7.72611123 15.49301917 -6.27946505 12.58902677 -4.83422852 9.68432617 C-3.22688526 6.45417989 -1.61465894 3.2264967 0 0 Z " fill="#D9CAB9" transform="translate(489,229)"/>
<path d="M0 0 C2.1640625 -0.29296875 2.1640625 -0.29296875 4.625 -0.1875 C5.44226563 -0.16042969 6.25953125 -0.13335937 7.1015625 -0.10546875 C7.72804688 -0.07066406 8.35453125 -0.03585938 9 0 C7.51806009 4.87647298 5.50736106 9.26225232 3.21875 13.79296875 C2.84943863 14.53149582 2.48012726 15.27002289 2.09962463 16.03092957 C0.9039432 18.41858337 -0.29779294 20.80312614 -1.5 23.1875 C-2.33289977 24.8464486 -3.16566286 26.50546584 -3.99829102 28.16455078 C-8.25086786 36.62429271 -12.55138382 45.05196188 -17.02148438 53.39916992 C-22.13265374 63.01697329 -26.91666249 72.80442641 -31.77145386 82.55316162 C-36.6261868 92.29833012 -41.505523 102.01991846 -46.63452148 111.62451172 C-50.20770556 118.33139314 -53.58077907 125.13386597 -56.96020508 131.93994141 C-60.09509672 138.2364283 -63.3129762 144.48012678 -66.65649414 150.66845703 C-70.16764353 157.20103136 -73.44634304 163.85089049 -76.75045776 170.48962402 C-80.75807246 178.54106828 -84.7741566 186.58829721 -88.7902832 194.63549805 C-89.88735587 196.83468404 -90.98371156 199.03422784 -92.0793457 201.23413086 C-97.63547003 212.38872928 -103.21639067 223.51787548 -109.09513855 234.50643921 C-112.22194872 240.36658565 -115.05226518 246.32937679 -117.80078125 252.37304688 C-120.17782773 257.50869527 -122.89017862 262.27175297 -126 267 C-126.99 266.67 -127.98 266.34 -129 266 C-129 265.34 -129 264.68 -129 264 C-129.66 264 -130.32 264 -131 264 C-132.20971155 260.5170942 -132.03898118 259.09893469 -130.6640625 255.609375 C-129.99884633 254.31537438 -129.31810129 253.02928134 -128.625 251.75 C-128.26212891 251.05326172 -127.89925781 250.35652344 -127.52539062 249.63867188 C-126.36443467 247.4179715 -125.18379919 245.20859504 -124 243 C-123.24659286 241.57855031 -122.4939776 240.15668059 -121.7421875 238.734375 C-120.66655566 236.69969594 -119.5894551 234.66617451 -118.49853516 232.63964844 C-114.8716812 225.87433622 -111.47669376 218.99197554 -108.05639648 212.12084961 C-106.37498578 208.74520486 -104.68728872 205.37270936 -103 202 C-102.33330075 200.66668296 -101.66663414 199.33334959 -101 198 C-99.66666667 195.33333333 -98.33333333 192.66666667 -97 190 C-96.66971802 189.33939575 -96.33943604 188.6787915 -95.99914551 187.99816895 C-95.33545747 186.67087395 -94.67164005 185.34364365 -94.00769043 184.01647949 C-92.29435963 180.59129074 -90.58359856 177.16485341 -88.87695312 173.73632812 C-85.18568283 166.32604005 -81.44243199 158.95454785 -77.51171875 151.66796875 C-73.93631132 144.98584026 -70.57645986 138.19604789 -67.20031738 131.41192627 C-63.51164578 123.99988337 -59.81564118 116.59149038 -56.11914062 109.18334961 C-55.12590524 107.19184774 -54.13338791 105.19998757 -53.14160156 103.20776367 C-47.70691949 92.29260163 -42.21156318 81.42052925 -36.49905396 70.64788818 C-32.37718876 62.86171492 -28.46595168 54.97758638 -24.58300781 47.07006836 C-23.69419941 45.26246255 -22.8003125 43.4573566 -21.90625 41.65234375 C-21.39384766 40.61070068 -20.88144531 39.56905762 -20.35351562 38.49584961 C-19 36 -19 36 -17 34 C-16.26580779 32.33138134 -15.53650251 30.66029427 -14.84179688 28.97485352 C-14.01422799 27.03337884 -13.10940323 25.1600163 -12.15625 23.27734375 C-10.73794755 20.46417111 -9.32694443 17.6479112 -7.9296875 14.82421875 C-7.24479167 13.4453125 -6.55989583 12.06640625 -5.875 10.6875 C-5.35486328 9.6346582 -5.35486328 9.6346582 -4.82421875 8.56054688 C-3.34281618 5.58355206 -1.8470551 2.77058265 0 0 Z " fill="#DACABA" transform="translate(504,229)"/>
<path d="M0 0 C0.99 0.495 0.99 0.495 2 1 C3.70363822 1.22622081 5.41328701 1.40888473 7.125 1.5625 C8.03507813 1.64628906 8.94515625 1.73007813 9.8828125 1.81640625 C10.58148437 1.87699219 11.28015625 1.93757812 12 2 C11.67 2.66 11.34 3.32 11 4 C8.03 4 5.06 4 2 4 C1.18595703 5.77117187 1.18595703 5.77117187 0.35546875 7.578125 C-0.36694222 9.13553047 -1.08961208 10.69281586 -1.8125 12.25 C-2.16892578 13.02730469 -2.52535156 13.80460938 -2.89257812 14.60546875 C-4.65259291 18.38384911 -6.37433747 21.73667657 -9 25 C-9.72261184 26.29350092 -10.41150414 27.60651657 -11.0625 28.9375 C-11.38347656 29.58589844 -11.70445312 30.23429687 -12.03515625 30.90234375 C-12.68683497 32.31915133 -13.28776819 33.76024342 -13.83984375 35.21875 C-15.47438684 39.1372506 -17.49651776 42.8220538 -19.5 46.5625 C-23.47626803 54.04553503 -27.33478119 61.57671665 -31.07226562 69.18188477 C-33.41998966 73.9302697 -35.85279994 78.62766272 -38.33288574 83.30786133 C-44.58561873 95.1086917 -50.56091454 107.03887543 -56.5 119 C-62.42185514 130.92642325 -68.35127164 142.83852674 -74.63415527 154.58007812 C-77.42336068 159.81240707 -79.99921605 165.12435076 -82.5 170.5 C-87.65525414 181.53063506 -93.37006015 192.24044818 -99.12890625 202.96484375 C-103.47535556 211.06523608 -107.65859648 219.22993493 -111.74121094 227.46630859 C-114.42006531 232.85830834 -117.11858067 238.24051615 -119.8125 243.625 C-120.9232406 245.84632241 -122.03392094 248.06767495 -123.14453125 250.2890625 C-124.6319734 253.26394681 -126.12158555 256.23177301 -127.66674805 259.17724609 C-129.04218332 262.0893103 -129.27972329 263.82980267 -129 267 C-128.34 267 -127.68 267 -127 267 C-126.67 267.66 -126.34 268.32 -126 269 C-125.01 269 -124.02 269 -123 269 C-123.66 270.65 -124.32 272.3 -125 274 C-129.39517824 270.84590627 -132.20919886 267.3211699 -135.25 262.9375 C-135.69601562 262.31294922 -136.14203125 261.68839844 -136.6015625 261.04492188 C-138.47318032 258.38779172 -139.96671893 256.09984322 -141 253 C-140.34 253 -139.68 253 -139 253 C-138.505 252.01 -138.505 252.01 -138 251 C-136.68 253.64 -135.36 256.28 -134 259 C-133.34 259 -132.68 259 -132 259 C-124.78106545 245.43905137 -117.8300109 231.76039284 -111 218 C-104.50106662 204.90662757 -97.90679125 191.87957713 -91.04699707 178.97113037 C-88.80950358 174.7587104 -86.59388474 170.53474087 -84.375 166.3125 C-83.9625 165.53068359 -83.55 164.74886719 -83.125 163.94335938 C-79.41507038 156.87762979 -75.85081906 149.74090558 -72.29364014 142.5975647 C-68.17048694 134.31847928 -64.040587 126.04275291 -59.90967751 117.76753521 C-58.36465367 114.67229976 -56.82039695 111.57668633 -55.27783203 108.48022461 C-49.10999632 96.10049704 -42.92425095 83.73665507 -36.43740845 71.52006531 C-32.68634159 64.44621757 -29.10487352 57.29294084 -25.55014038 50.11886597 C-20.17933377 39.28220113 -14.79120955 28.46143321 -9.04296875 17.81835938 C-6.44295634 12.97679214 -4.18887563 8.04179218 -2 3 C-5.3 3 -8.6 3 -12 3 C-12 2.67 -12 2.34 -12 2 C-8.04 2 -4.08 2 0 2 C0 1.34 0 0.68 0 0 Z " fill="#733D37" transform="translate(502,226)"/>
<path d="M0 0 C0.33 0 0.66 0 1 0 C1.0093457 1.0923999 1.01869141 2.1847998 1.02832031 3.31030273 C1.06886699 7.45017009 1.13478638 11.58934344 1.20751953 15.72875977 C1.23536107 17.50405817 1.256754 19.27947206 1.27099609 21.05493164 C1.42800065 39.544835 3.05860449 59.73629167 16.46484375 73.6875 C28.61427901 84.76988163 44.81574631 90.25589002 60.26049805 94.98413086 C73.62250135 99.18906561 84.54424129 105.14190079 91.375 117.75 C97.40991377 130.78738165 96.5511954 144.59493316 94.6875 158.5 C94.55432373 159.54752441 94.42114746 160.59504883 94.28393555 161.67431641 C93.66672686 166.42613628 93.00273109 171.15463535 92.1328125 175.8671875 C86.79388753 204.87129478 88.96019318 235.40311941 105.28125 260.74609375 C108.86813189 265.44980023 112.90298253 269.74104508 117 274 C116.34 274.66 115.68 275.32 115 276 C101.40497156 268.70510669 94.33729725 248.70626469 90.03125 234.66796875 C89.6909375 233.45753906 89.350625 232.24710938 89 231 C88.52046875 229.35451172 88.52046875 229.35451172 88.03125 227.67578125 C83.03594545 207.39391973 85.80800557 186.14089509 90 166 C93.47314754 148.69151196 95.04680164 129.65510214 85.2265625 114.2109375 C76.54515691 103.20118559 62.72277399 98.93824314 49.74609375 95.13671875 C32.73849422 89.97591431 14.79982634 81.24860002 5.20703125 65.6015625 C2.61377928 60.0122233 1.2121148 54.020482 0 48 C-0.18095215 47.11296387 -0.3619043 46.22592773 -0.54833984 45.31201172 C-1.96249688 37.73447653 -2.24309363 30.44425437 -2.125 22.75 C-2.11597656 21.61175781 -2.10695312 20.47351563 -2.09765625 19.30078125 C-2.0744028 16.53362119 -2.04172868 13.7669324 -2 11 C-1.67 11 -1.34 11 -1 11 C-0.67 7.37 -0.34 3.74 0 0 Z " fill="#75403B" transform="translate(254,229)"/>
<path d="M0 0 C0.66 0.33 1.32 0.66 2 1 C3.70363822 1.22622081 5.41328701 1.40888473 7.125 1.5625 C8.03507812 1.64628906 8.94515625 1.73007813 9.8828125 1.81640625 C10.58148437 1.87699219 11.28015625 1.93757812 12 2 C11.67 2.66 11.34 3.32 11 4 C8.03 4 5.06 4 2 4 C1.18595703 5.77117187 1.18595703 5.77117187 0.35546875 7.578125 C-0.36694222 9.13553047 -1.08961208 10.69281586 -1.8125 12.25 C-2.16892578 13.02730469 -2.52535156 13.80460938 -2.89257812 14.60546875 C-4.65259291 18.38384911 -6.37433747 21.73667657 -9 25 C-9.72261184 26.29350092 -10.41150414 27.60651657 -11.0625 28.9375 C-11.54396484 29.91009766 -11.54396484 29.91009766 -12.03515625 30.90234375 C-12.68683497 32.31915133 -13.28776819 33.76024342 -13.83984375 35.21875 C-15.47438811 39.13725365 -17.496548 42.82203288 -19.5 46.5625 C-24.4545437 55.88896807 -29.20276921 65.30967769 -33.89355469 74.77099609 C-35.58798518 78.18453326 -37.29413508 81.59216483 -39 85 C-40.20947266 83.44995117 -40.20947266 83.44995117 -41 81 C-40.01113396 78.41097935 -38.97470265 76.20950663 -37.6484375 73.80078125 C-36.88971787 72.35789031 -36.13159838 70.91468367 -35.37402344 69.47119141 C-34.97872437 68.73048401 -34.58342529 67.98977661 -34.17614746 67.22662354 C-32.33446074 63.74003437 -30.5963812 60.20372848 -28.8515625 56.66796875 C-28.15454067 55.26717277 -27.45686257 53.86670317 -26.75854492 52.46655273 C-26.40956146 51.76650116 -26.060578 51.06644958 -25.70101929 50.34518433 C-25.34593292 49.6331485 -24.99084656 48.92111267 -24.625 48.1875 C-24.25726471 47.45008575 -23.88952942 46.71267151 -23.51065063 45.95291138 C-18.80027651 36.51493799 -14.05631329 27.10132692 -9.04345703 17.8190918 C-6.4431219 12.97735618 -4.18899347 8.04206361 -2 3 C-5.3 3 -8.6 3 -12 3 C-12 2.67 -12 2.34 -12 2 C-8.04 2 -4.08 2 0 2 C0 1.34 0 0.68 0 0 Z " fill="#793F3A" transform="translate(502,226)"/>
<path d="M0 0 C1.82337056 3.22728029 2.85799959 6.57460536 3.95361328 10.09301758 C7.38968545 21.06993075 11.54539909 31.06424476 19 40 C18.67 40.66 18.34 41.32 18 42 C6.57682348 33.4626786 -0.80758437 19.40762873 -5 6 C-4.01 6 -3.02 6 -2 6 C-1.34 4.02 -0.68 2.04 0 0 Z " fill="#DCBDB0" transform="translate(342,456)"/>
<path d="M0 0 C0.33 0 0.66 0 1 0 C1.0093457 1.0923999 1.01869141 2.1847998 1.02832031 3.31030273 C1.06886699 7.45017009 1.13478638 11.58934344 1.20751953 15.72875977 C1.23536107 17.50405817 1.256754 19.27947206 1.27099609 21.05493164 C1.40633966 36.99389207 3.50511677 51.30265861 10 66 C10.33 66.99 10.66 67.98 11 69 C10.01 69 9.02 69 8 69 C4.68346373 64.87639787 3.16164718 60.96752791 1.875 55.875 C1.56304687 54.67617188 1.25109375 53.47734375 0.9296875 52.2421875 C-1.328482 42.33631829 -2.28096141 32.91148601 -2.125 22.75 C-2.11597656 21.61175781 -2.10695312 20.47351563 -2.09765625 19.30078125 C-2.0744028 16.53362119 -2.04172868 13.7669324 -2 11 C-1.67 11 -1.34 11 -1 11 C-0.67 7.37 -0.34 3.74 0 0 Z " fill="#784740" transform="translate(254,229)"/>
<path d="M0 0 C0.66 0 1.32 0 2 0 C3.25512743 3.58705816 3.01900739 4.95292176 1.56640625 8.55078125 C0.91261433 9.81213737 0.24416656 11.06598733 -0.4375 12.3125 C-0.77587891 12.95767578 -1.11425781 13.60285156 -1.46289062 14.26757812 C-2.29603295 15.85172198 -3.14634904 17.42681282 -4 19 C-4.66 18.67 -5.32 18.34 -6 18 C-6.625 15.4375 -6.625 15.4375 -7 13 C-7.99 13.495 -7.99 13.495 -9 14 C-8.8125 10.6875 -8.8125 10.6875 -8 7 C-5.5625 5.25 -5.5625 5.25 -3 4 C-2.34 3.01 -1.68 2.02 -1 1 C-0.67 0.67 -0.34 0.34 0 0 Z " fill="#D9CEBD" transform="translate(400,417)"/>
<path d="M0 0 C0.66 0 1.32 0 2 0 C0.4719611 5.09882455 -1.71036856 9.65665659 -4.125 14.375 C-4.49753906 15.11105469 -4.87007813 15.84710938 -5.25390625 16.60546875 C-6.1656122 18.40550358 -7.08229932 20.20301402 -8 22 C-9.1171875 18.28125 -9.1171875 18.28125 -8.0625 15.75 C-7.711875 15.1725 -7.36125 14.595 -7 14 C-7.99 14 -8.98 14 -10 14 C-10.99 15.485 -10.99 15.485 -12 17 C-12.99 16.67 -13.98 16.34 -15 16 C-13.58707905 11.1725201 -11.57025846 7.2837641 -9 3 C-8.34 4.32 -7.68 5.64 -7 7 C-7.66 7 -8.32 7 -9 7 C-8.67 8.65 -8.34 10.3 -8 12 C-5.93597032 11.51294288 -5.93597032 11.51294288 -4 10 C-3.18129815 6.43793339 -3.18129815 6.43793339 -3 3 C-2.34 3 -1.68 3 -1 3 C-0.67 2.01 -0.34 1.02 0 0 Z " fill="#D9BFB2" transform="translate(473,304)"/>
<path d="M0 0 C0.33 0 0.66 0 1 0 C1 1.98 1 3.96 1 6 C1.66 6.33 2.32 6.66 3 7 C1.02 10.63 -0.96 14.26 -3 18 C-6.27542151 15.22848949 -7.84441111 13.56400972 -9 9.375 C-9 6 -9 6 -7.5625 4.0625 C-7.046875 3.711875 -6.53125 3.36125 -6 3 C-5.67 3.99 -5.34 4.98 -5 6 C-5.66 6 -6.32 6 -7 6 C-6.67 6.66 -6.34 7.32 -6 8 C-3.47266765 8.65555119 -3.47266765 8.65555119 -1 9 C-0.84850702 5.37114676 -0.84850702 5.37114676 -2 2 C-1.34 2 -0.68 2 0 2 C0 1.34 0 0.68 0 0 Z " fill="#D9C4B6" transform="translate(373,469)"/>
<path d="M0 0 C0.66 0.33 1.32 0.66 2 1 C3.70363822 1.22622081 5.41328701 1.40888473 7.125 1.5625 C8.03507812 1.64628906 8.94515625 1.73007813 9.8828125 1.81640625 C10.58148437 1.87699219 11.28015625 1.93757812 12 2 C11.67 2.66 11.34 3.32 11 4 C8.03 4 5.06 4 2 4 C1.44570313 5.21558594 0.89140625 6.43117187 0.3203125 7.68359375 C-0.41112806 9.26838164 -1.14291694 10.85300881 -1.875 12.4375 C-2.23980469 13.23994141 -2.60460937 14.04238281 -2.98046875 14.86914062 C-3.33496094 15.63291016 -3.68945312 16.39667969 -4.0546875 17.18359375 C-4.37937012 17.89056396 -4.70405273 18.59753418 -5.03857422 19.32592773 C-6 21 -6 21 -8 22 C-8.66 21.67 -9.32 21.34 -10 21 C-8.443154 16.98696492 -6.68861143 13.0907072 -4.875 9.1875 C-4.33617187 8.02605469 -3.79734375 6.86460937 -3.2421875 5.66796875 C-2.62730469 4.34732422 -2.62730469 4.34732422 -2 3 C-5.3 3 -8.6 3 -12 3 C-12 2.67 -12 2.34 -12 2 C-8.04 2 -4.08 2 0 2 C0 1.34 0 0.68 0 0 Z " fill="#7A433E" transform="translate(502,226)"/>
<path d="M0 0 C0.33 0 0.66 0 1 0 C1.03738281 1.258125 1.07476562 2.51625 1.11328125 3.8125 C1.46660328 13.59222337 2.30878496 22.89554618 4.30078125 32.4765625 C5.19180839 36.96654284 5.68193125 41.43735862 6 46 C4 45 4 45 2.9296875 42.67578125 C-1.41317496 28.82687539 -0.36209179 14.35136871 0 0 Z " fill="#723A32" transform="translate(341,422)"/>
<path d="M0 0 C0.66 0.33 1.32 0.66 2 1 C1.56131592 1.82407349 1.56131592 1.82407349 1.11376953 2.66479492 C-0.21845499 5.17097294 -1.54675837 7.67920899 -2.875 10.1875 C-3.33519531 11.05181641 -3.79539062 11.91613281 -4.26953125 12.80664062 C-4.71425781 13.64775391 -5.15898437 14.48886719 -5.6171875 15.35546875 C-6.02565918 16.12528076 -6.43413086 16.89509277 -6.85498047 17.68823242 C-8.04076321 20.08229997 -9.04011256 22.50776212 -10 25 C-10.66 24.01 -11.32 23.02 -12 22 C-10.84958339 17.03163827 -8.40202705 12.64778574 -6 8.1875 C-5.64421875 7.50751953 -5.2884375 6.82753906 -4.921875 6.12695312 C-2.24842687 1.12421344 -2.24842687 1.12421344 0 0 Z " fill="#7D4640" transform="translate(405,420)"/>
<path d="M0 0 C0.66 0.66 1.32 1.32 2 2 C0.02 5.96 -1.96 9.92 -4 14 C-4.33 12.68 -4.66 11.36 -5 10 C-8.12197478 11.3089572 -8.12197478 11.3089572 -10 14 C-10 13.34 -10 12.68 -10 12 C-10.66 12 -11.32 12 -12 12 C-12.66 13.98 -13.32 15.96 -14 18 C-14.66 18 -15.32 18 -16 18 C-14.78508612 13.9814387 -13.56778868 10.35787751 -11 7 C-9.68 7 -8.36 7 -7 7 C-5.32774271 6.69595322 -3.65919896 6.36871088 -2 6 C-1.855625 5.195625 -1.71125 4.39125 -1.5625 3.5625 C-1 1 -1 1 0 0 Z " fill="#D5C0B1" transform="translate(497,257)"/>
<path d="M0 0 C0.66 0.33 1.32 0.66 2 1 C1.01 2.98 0.02 4.96 -1 7 C-1.66 5.68 -2.32 4.36 -3 3 C-3.66 3 -4.32 3 -5 3 C-5.66 5.31 -6.32 7.62 -7 10 C-7.66 9.34 -8.32 8.68 -9 8 C-9.928125 8.99 -9.928125 8.99 -10.875 10 C-13 12 -13 12 -15 12 C-13.78310457 7.97488434 -12.50546238 4.40742883 -10 1 C-7.95822704 1 -5.91636472 1.02167271 -3.875 1.0625 C-1.10325547 1.3337793 -1.10325547 1.3337793 0 0 Z " fill="#D4C0B0" transform="translate(405,414)"/>
<path d="M0 0 C0.33 0 0.66 0 1 0 C1.07485655 3.89254042 0.93973036 7.24107857 0 11 C0.75150023 14.27773504 0.75150023 14.27773504 4 16 C3.01 17.98 2.02 19.96 1 22 C-1.76223278 19.23776722 -1.57856291 16.79293383 -2 13 C-3.32 13 -4.64 13 -6 13 C-4.31326082 8.50202887 -2.18326108 4.27113698 0 0 Z " fill="#D4C9B8" transform="translate(407,391)"/>
<path d="M0 0 C0.33 0 0.66 0 1 0 C1 1.65 1 3.3 1 5 C0.34 5 -0.32 5 -1 5 C-0.67 5.99 -0.34 6.98 0 8 C-0.04125 8.969375 -0.0825 9.93875 -0.125 10.9375 C0.01526735 14.37404996 0.7111791 15.52044403 3 18 C2.34 19.32 1.68 20.64 1 22 C0.34 22 -0.32 22 -1 22 C-1 19.69 -1 17.38 -1 15 C-3.31 15.66 -5.62 16.32 -8 17 C-5.36 11.39 -2.72 5.78 0 0 Z " fill="#DEC3B5" transform="translate(471,265)"/>
<path d="M0 0 C0.33 0 0.66 0 1 0 C1.89973224 6.98018074 2.21401366 13.83966962 2.25 20.875 C2.270625 21.90625 2.29125 22.9375 2.3125 24 C2.31765625 24.98742187 2.3228125 25.97484375 2.328125 26.9921875 C2.3374707 27.88276855 2.34681641 28.77334961 2.35644531 29.69091797 C1.93355035 32.43046627 1.12664961 33.29376726 -1 35 C-1.0292427 30.66668104 -1.04688017 26.33338779 -1.0625 22 C-1.07087891 20.77925781 -1.07925781 19.55851562 -1.08789062 18.30078125 C-1.10464844 12.10039068 -0.97272146 6.1273793 0 0 Z " fill="#8A524B" transform="translate(341,410)"/>
<path d="M0 0 C0.33 0 0.66 0 1 0 C1.19931095 4.12451643 1.38226449 8.24960947 1.5625 12.375 C1.61857422 13.53128906 1.67464844 14.68757813 1.73242188 15.87890625 C2.02120622 22.6942169 1.92675197 29.23731984 1 36 C-1 34 -1 34 -1.23046875 30.9375 C-1.21628906 29.638125 -1.20210938 28.33875 -1.1875 27 C-1.18105469 26.30390625 -1.17460937 25.6078125 -1.16796875 24.890625 C-1.05011914 16.58222737 -0.53731694 8.29003276 0 0 Z " fill="#C9A79B" transform="translate(331,362)"/>
<path d="M0 0 C4.00291641 3.66934004 6.69974484 7.04560426 9 12 C8.75 14.9375 8.75 14.9375 8 17 C6 15 6 15 5 11.9375 C4.34247444 8.87849194 4.34247444 8.87849194 2 8 C1.67 8.99 1.34 9.98 1 11 C-0.17571451 7.32589215 -0.07366746 3.83070817 0 0 Z " fill="#DDC9BA" transform="translate(348,328)"/>
<path d="M0 0 C0.66 0 1.32 0 2 0 C0.8905928 3.48670834 -0.26337666 6.77484237 -2 10 C-3.65 9.67 -5.3 9.34 -7 9 C-7 8.01 -7 7.02 -7 6 C-7.99 6 -8.98 6 -10 6 C-9.34 4.35 -8.68 2.7 -8 1 C-7.01 1 -6.02 1 -5 1 C-5 2.65 -5 4.3 -5 6 C-4.34 5.01 -3.68 4.02 -3 3 C-2.34 3 -1.68 3 -1 3 C-0.67 2.01 -0.34 1.02 0 0 Z " fill="#D7C3B2" transform="translate(401,446)"/>
<path d="M0 0 C0.33 0 0.66 0 1 0 C1 1.65 1 3.3 1 5 C1.66 5 2.32 5 3 5 C3.84888195 10.37625234 4.0024305 14.65370398 3 20 C2.67 20 2.34 20 2 20 C1.67 21.98 1.34 23.96 1 26 C0.67 26 0.34 26 0 26 C0 17.42 0 8.84 0 0 Z " fill="#D8C5B5" transform="translate(343,419)"/>
<path d="M0 0 C0.33 1.32 0.66 2.64 1 4 C0.34 4 -0.32 4 -1 4 C-0.67 4.66 -0.34 5.32 0 6 C0.66 4.35 1.32 2.7 2 1 C4.0625 3.3125 4.0625 3.3125 6 6 C5 9 5 9 3 10 C3 10.99 3 11.98 3 13 C1.35 13 -0.3 13 -2 13 C-2 12.01 -2 11.02 -2 10 C-2.66 9.67 -3.32 9.34 -4 9 C-3.34 7.02 -2.68 5.04 -2 3 C-1.34 3 -0.68 3 0 3 C0 2.01 0 1.02 0 0 Z " fill="#D9D1BF" transform="translate(431,346)"/>
<path d="M0 0 C1.32 0.33 2.64 0.66 4 1 C3.05407718 7.29785459 1.97841864 11.96066973 -2 17 C-2.33 15.68 -2.66 14.36 -3 13 C-2.34 13 -1.68 13 -1 13 C-1.99 9.7 -2.98 6.4 -4 3 C-3.01 2.67 -2.02 2.34 -1 2 C-0.67 1.34 -0.34 0.68 0 0 Z " fill="#DBCBBC" transform="translate(462,317)"/>
<path d="M0 0 C1.08901177 3.26703531 0.93102067 4.67483286 0.3125 8 C0.16425781 8.86625 0.01601563 9.7325 -0.13671875 10.625 C-1.19352767 13.53242001 -2.3550877 14.46261312 -5 16 C-5.66 16 -6.32 16 -7 16 C-6.40165275 11.85701333 -4.99335715 8.81805623 -2.9375 5.1875 C-2.11572266 3.72376953 -2.11572266 3.72376953 -1.27734375 2.23046875 C-0.85582031 1.49441406 -0.43429687 0.75835937 0 0 Z " fill="#743631" transform="translate(390,472)"/>
<path d="M0 0 C0.33 0 0.66 0 1 0 C1.47861847 5.42434263 -0.72260978 8.92424089 -3.5 13.4375 C-5.31280565 16.53437632 -6.63403531 19.68265717 -8 23 C-8.99 22.67 -9.98 22.34 -11 22 C-7.37 14.74 -3.74 7.48 0 0 Z " fill="#DABBAF" transform="translate(388,456)"/>
<path d="M0 0 C1 3 1 3 0.10375977 5.36010742 C-0.36231689 6.26607666 -0.82839355 7.1720459 -1.30859375 8.10546875 C-1.80810547 9.08837891 -2.30761719 10.07128906 -2.82226562 11.08398438 C-3.35529297 12.10814453 -3.88832031 13.13230469 -4.4375 14.1875 C-4.96666016 15.22326172 -5.49582031 16.25902344 -6.04101562 17.32617188 C-7.35185799 19.88880966 -8.67178957 22.44633287 -10 25 C-10.33 25 -10.66 25 -11 25 C-11.125 22.625 -11.125 22.625 -11 20 C-10.34 19.34 -9.68 18.68 -9 18 C-8.32059533 15.57284794 -8.32059533 15.57284794 -7.875 12.875 C-7.70742188 11.96492188 -7.53984375 11.05484375 -7.3671875 10.1171875 C-7.24601562 9.41851562 -7.12484375 8.71984375 -7 8 C-6.34 8.33 -5.68 8.66 -5 9 C-3.35 6.03 -1.7 3.06 0 0 Z " fill="#70342E" transform="translate(384,433)"/>
<path d="M0 0 C2.64 0 5.28 0 8 0 C8.33 0.99 8.66 1.98 9 3 C8.67 3.33 8.34 3.66 8 4 C8.99 4.33 9.98 4.66 11 5 C12.0625 6.9375 12.0625 6.9375 13 9 C13.66 9.66 14.32 10.32 15 11 C13.02 11.99 13.02 11.99 11 13 C10.62488281 12.48050781 10.24976563 11.96101563 9.86328125 11.42578125 C6.81914561 7.27747551 3.74720709 3.52678314 0 0 Z " fill="#77342F" transform="translate(343,323)"/>
<path d="M0 0 C1.5 1.0625 1.5 1.0625 3 3 C3.65882353 9.14901961 3.65882353 9.14901961 1.5 11.9375 C1.005 12.288125 0.51 12.63875 0 13 C-0.33 12.01 -0.66 11.02 -1 10 C-1.99 9.67 -2.98 9.34 -4 9 C-3.35455571 5.51460083 -1.89865603 2.97180943 0 0 Z " fill="#DACFBF" transform="translate(427,359)"/>
<path d="M0 0 C1.84790538 3.31016094 2.74541487 6.57173491 3.625 10.25 C3.88539063 11.32765625 4.14578125 12.4053125 4.4140625 13.515625 C4.60742188 14.33546875 4.80078125 15.1553125 5 16 C3.68 16 2.36 16 1 16 C0.17361624 13.10765685 0 11.11257569 0 8 C-1.32 8.33 -2.64 8.66 -4 9 C-4 8.01 -4 7.02 -4 6 C-3.34 6 -2.68 6 -2 6 C-1.34 4.02 -0.68 2.04 0 0 Z " fill="#D6BCB0" transform="translate(342,456)"/>
<path d="M0 0 C3.68624832 2.45749888 4.39101018 4.49005728 6.1875 8.5 C6.71730469 9.6653125 7.24710938 10.830625 7.79296875 12.03125 C9 15 9 15 9 17 C6.4636387 15.98545548 5.20648539 15.3146444 3.6875 13 C3.460625 12.34 3.23375 11.68 3 11 C3.33 10.34 3.66 9.68 4 9 C3.01 9 2.02 9 1 9 C1.33 7.68 1.66 6.36 2 5 C1.34 5 0.68 5 0 5 C0 3.35 0 1.7 0 0 Z " fill="#763A33" transform="translate(232,283)"/>
<path d="M0 0 C0.66 0 1.32 0 2 0 C1.33333333 2.66666667 0.66666667 5.33333333 0 8 C-0.61875 8.103125 -1.2375 8.20625 -1.875 8.3125 C-4.36526484 8.87525373 -4.36526484 8.87525373 -6 12 C-6 11.34 -6 10.68 -6 10 C-6.66 10 -7.32 10 -8 10 C-6.71687586 6.04370056 -5.46583075 4.27445143 -2 2 C-1.34 1.34 -0.68 0.68 0 0 Z " fill="#DAD0BD" transform="translate(495,255)"/>
<path d="M0 0 C0.33 0 0.66 0 1 0 C3.13684211 20.07105263 3.13684211 20.07105263 -1 28 C-1.85025773 25.54369988 -2.00438705 24.02569561 -1.5625 21.4375 C-0.86393516 17.16849266 -0.64746662 12.94136298 -0.4375 8.625 C-0.39431641 7.79355469 -0.35113281 6.96210938 -0.30664062 6.10546875 C-0.20138195 4.07046772 -0.10026928 2.03525297 0 0 Z " fill="#78413A" transform="translate(359,352)"/>
<path d="M0 0 C0.33 1.32 0.66 2.64 1 4 C1.66 4 2.32 4 3 4 C2.34 6.31 1.68 8.62 1 11 C0.360625 11.12375 -0.27875 11.2475 -0.9375 11.375 C-1.618125 11.58125 -2.29875 11.7875 -3 12 C-3.33 12.66 -3.66 13.32 -4 14 C-4.66 14 -5.32 14 -6 14 C-4.50829734 9.0276578 -2.39542583 4.58154261 0 0 Z " fill="#D1C1AE" transform="translate(427,379)"/>
<path d="M0 0 C1.485 0.99 1.485 0.99 3 2 C2.34 7.61 1.68 13.22 1 19 C0.34 19 -0.32 19 -1 19 C-1.02714735 16.77090129 -1.04646254 14.54170633 -1.0625 12.3125 C-1.07990234 10.45044922 -1.07990234 10.45044922 -1.09765625 8.55078125 C-1.01478673 5.53764546 -0.70839449 2.91724661 0 0 Z " fill="#794742" transform="translate(343,400)"/>
<path d="M0 0 C0.99 0.33 1.98 0.66 3 1 C1.02 4.63 -0.96 8.26 -3 12 C-3.66 11.67 -4.32 11.34 -5 11 C-5.36666667 5.5 -5.36666667 5.5 -3.625 3.125 C-2 2 -2 2 0 2 C0 1.34 0 0.68 0 0 Z " fill="#74342E" transform="translate(432,337)"/>
<path d="M0 0 C0.85242039 2.41519111 1.10298022 3.67070279 0.328125 6.1484375 C-0.02765625 6.88320313 -0.3834375 7.61796875 -0.75 8.375 C-1.12125 9.15488281 -1.4925 9.93476563 -1.875 10.73828125 C-2.24625 11.48464844 -2.6175 12.23101562 -3 13 C-3.5775 14.175625 -4.155 15.35125 -4.75 16.5625 C-5.1625 17.366875 -5.575 18.17125 -6 19 C-6.66 19 -7.32 19 -8 19 C-7.38188466 14.44684052 -5.53234107 10.71540233 -3.4375 6.6875 C-2.9434668 5.71973633 -2.9434668 5.71973633 -2.43945312 4.73242188 C-1.63175745 3.15214772 -0.81662387 1.57567895 0 0 Z " fill="#DEBFB4" transform="translate(441,324)"/>
<path d="M0 0 C0.66 0 1.32 0 2 0 C4.125 5.625 4.125 5.625 3 9 C2.01 9 1.02 9 0 9 C-0.33 8.34 -0.66 7.68 -1 7 C-1.99 8.32 -2.98 9.64 -4 11 C-3.67 8.36 -3.34 5.72 -3 3 C-2.34 3 -1.68 3 -1 3 C-0.67 2.01 -0.34 1.02 0 0 Z " fill="#D9D0BD" transform="translate(482,248)"/>
<path d="M0 0 C0.66 0 1.32 0 2 0 C2.55571948 2.45592158 3.09497489 4.91352746 3.625 7.375 C3.78484375 8.07367188 3.9446875 8.77234375 4.109375 9.4921875 C4.49427354 11.31170787 4.75556082 13.15634853 5 15 C4.34 15.66 3.68 16.32 3 17 C1.82428549 13.32589215 1.92633254 9.83070817 2 6 C1.34 6 0.68 6 0 6 C-0.33 6.99 -0.66 7.98 -1 9 C-1.99 9.33 -2.98 9.66 -4 10 C-4 9.01 -4 8.02 -4 7 C-3.01 7 -2.02 7 -1 7 C-0.67 4.69 -0.34 2.38 0 0 Z " fill="#D4B9AB" transform="translate(349,448)"/>
<path d="M0 0 C0.33 0.66 0.66 1.32 1 2 C1.66 2 2.32 2 3 2 C3 2.99 3 3.98 3 5 C2.34 5 1.68 5 1 5 C1 6.65 1 8.3 1 10 C0.01 10.33 -0.98 10.66 -2 11 C-2.66 11.66 -3.32 12.32 -4 13 C-5 10 -5 10 -4.00390625 7.51953125 C-3.52824219 6.62621094 -3.05257813 5.73289062 -2.5625 4.8125 C-2.08941406 3.91144531 -1.61632812 3.01039063 -1.12890625 2.08203125 C-0.75636719 1.39496094 -0.38382812 0.70789063 0 0 Z " fill="#D3C5B4" transform="translate(385,434)"/>
<path d="M0 0 C0.99 0.33 1.98 0.66 3 1 C3.66 4.3 4.32 7.6 5 11 C3.68 10.67 2.36 10.34 1 10 C1 9.34 1 8.68 1 8 C0.34 8 -0.32 8 -1 8 C-1.04241723 5.66705225 -1.04092937 3.33297433 -1 1 C-0.67 0.67 -0.34 0.34 0 0 Z " fill="#DECFBF" transform="translate(402,403)"/>
<path d="M0 0 C0.66 0.33 1.32 0.66 2 1 C3.70363822 1.22622081 5.41328701 1.40888473 7.125 1.5625 C8.03507812 1.64628906 8.94515625 1.73007813 9.8828125 1.81640625 C10.58148437 1.87699219 11.28015625 1.93757812 12 2 C11.67 2.66 11.34 3.32 11 4 C10.37351562 3.96519531 9.74703125 3.93039063 9.1015625 3.89453125 C8.28429687 3.86746094 7.46703125 3.84039062 6.625 3.8125 C5.40683594 3.76029297 5.40683594 3.76029297 4.1640625 3.70703125 C3.44992187 3.80371094 2.73578125 3.90039062 2 4 C1.01 5.485 1.01 5.485 0 7 C-0.66 7 -1.32 7 -2 7 C-2 5.68 -2 4.36 -2 3 C-5.3 3 -8.6 3 -12 3 C-12 2.67 -12 2.34 -12 2 C-8.04 2 -4.08 2 0 2 C0 1.34 0 0.68 0 0 Z " fill="#89524C" transform="translate(502,226)"/>
<path d="M0 0 C1.1484375 1.671875 1.1484375 1.671875 2 4 C1.1015625 6.578125 1.1015625 6.578125 -0.375 9.25 C-1.09816406 10.58804687 -1.09816406 10.58804687 -1.8359375 11.953125 C-2.22007812 12.62859375 -2.60421875 13.3040625 -3 14 C-3.99 14 -4.98 14 -6 14 C-4.50829734 9.0276578 -2.39542583 4.58154261 0 0 Z " fill="#74423C" transform="translate(417,393)"/>
<path d="M0 0 C2.40820361 2.40820361 2.68097423 3.65022937 3 7 C2.02269781 9.70637529 1.59487555 10.70256222 -1 12 C-1.36279456 10.71073008 -1.71496698 9.41846728 -2.0625 8.125 C-2.35833984 7.04605469 -2.35833984 7.04605469 -2.66015625 5.9453125 C-3 4 -3 4 -2 2 C-1.34 2 -0.68 2 0 2 C0 1.34 0 0.68 0 0 Z " fill="#D4CEBC" transform="translate(354,464)"/>
<path d="M0 0 C2.44018427 0.23076189 4.87870362 0.47069017 7.31640625 0.7265625 C8.92617292 0.89058531 10.53807669 1.03710874 12.15234375 1.1484375 C14 1.3125 14 1.3125 17 2 C18.1875 4.04296875 18.1875 4.04296875 19 6 C16.0183929 5.38517411 13.04009328 4.75872174 10.0625 4.125 C9.21236328 3.95097656 8.36222656 3.77695312 7.48632812 3.59765625 C6.67744141 3.42363281 5.86855469 3.24960937 5.03515625 3.0703125 C4.2862915 2.91320801 3.53742676 2.75610352 2.76586914 2.59423828 C1 2 1 2 0 0 Z " fill="#D7B5AA" transform="translate(303,344)"/>
<path d="M0 0 C0.66 0 1.32 0 2 0 C2.19335938 0.62648438 2.38671875 1.25296875 2.5859375 1.8984375 C2.97652344 3.12433594 2.97652344 3.12433594 3.375 4.375 C3.63023437 5.18710937 3.88546875 5.99921875 4.1484375 6.8359375 C4.89854283 9.16459185 4.89854283 9.16459185 7 11 C7.39764263 12.98821313 7.73775349 14.98944339 8 17 C3.63553414 13.22532682 1.37945512 9.64118637 0 4 C0 2.68 0 1.36 0 0 Z " fill="#E5C4BA" transform="translate(259,281)"/>
<path d="M0 0 C2.48046875 1.11328125 2.48046875 1.11328125 5 3 C5.48828125 5.91796875 5.48828125 5.91796875 5.3125 9.1875 C5.26738281 10.27417969 5.22226562 11.36085938 5.17578125 12.48046875 C5.11777344 13.31191406 5.05976563 14.14335937 5 15 C3.12118931 12.18178397 2.30990783 10.14357281 1.375 6.9375 C0.98441406 5.62072266 0.98441406 5.62072266 0.5859375 4.27734375 C0 2 0 2 0 0 Z " fill="#70332C" transform="translate(352,454)"/>
<path d="M0 0 C0.99 0.33 1.98 0.66 3 1 C3 2.32 3 3.64 3 5 C2.34 5 1.68 5 1 5 C0.67 5.99 0.34 6.98 0 8 C-0.66 8 -1.32 8 -2 8 C-2.33 8.99 -2.66 9.98 -3 11 C-3.66 11 -4.32 11 -5 11 C-3.55049545 7.2089881 -1.84827434 3.6125362 0 0 Z " fill="#753D35" transform="translate(435,383)"/>
<path d="M0 0 C1.28497537 3.85492611 0.4052209 5.40346836 -0.9375 9.1875 C-1.31777344 10.27417969 -1.69804687 11.36085938 -2.08984375 12.48046875 C-2.39019531 13.31191406 -2.69054687 14.14335937 -3 15 C-4.32 15 -5.64 15 -7 15 C-5.63408831 11.45756548 -4.09068516 8.07372071 -2.375 4.6875 C-1.70597656 3.36298828 -1.70597656 3.36298828 -1.0234375 2.01171875 C-0.68570312 1.34785156 -0.34796875 0.68398438 0 0 Z " fill="#D8BDB1" transform="translate(435,364)"/>
<path d="M0 0 C0.66 0 1.32 0 2 0 C2.33 1.98 2.66 3.96 3 6 C2.01 6.33 1.02 6.66 0 7 C-0.33 7.66 -0.66 8.32 -1 9 C-0.34 9 0.32 9 1 9 C0.67 9.99 0.34 10.98 0 12 C0 11.34 0 10.68 0 10 C-0.99 9.67 -1.98 9.34 -3 9 C-3.33 7.35 -3.66 5.7 -4 4 C-3.01 4 -2.02 4 -1 4 C-0.67 2.68 -0.34 1.36 0 0 Z " fill="#D8D1BD" transform="translate(477,287)"/>
<path d="M0 0 C0.66 0.33 1.32 0.66 2 1 C2.33333333 2.66666667 2.66666667 4.33333333 3 6 C3.66 6.33 4.32 6.66 5 7 C6.01691264 8.99145391 7.01642648 10.99187074 8 13 C8.66 13.66 9.32 14.32 10 15 C9.67 15.99 9.34 16.98 9 18 C7.69858519 16.29908111 6.40927835 14.58889459 5.125 12.875 C4.40570313 11.92367188 3.68640625 10.97234375 2.9453125 9.9921875 C1.01788981 7.02751726 -0.04470778 4.38877345 -1 1 C-0.67 0.67 -0.34 0.34 0 0 Z " fill="#723A33" transform="translate(276,275)"/>
<path d="M0 0 C-0.020625 0.928125 -0.04125 1.85625 -0.0625 2.8125 C0.01144488 6.58368896 0.31103385 8.31103385 3 11 C2.01 11.66 1.02 12.32 0 13 C-0.67667998 11.75539217 -1.34094719 10.50403104 -2 9.25 C-2.37125 8.55390625 -2.7425 7.8578125 -3.125 7.140625 C-4 5 -4 5 -4 1 C-1 0 -1 0 0 0 Z " fill="#D8C9B7" transform="translate(343,463)"/>
<path d="M0 0 C2.475 0.99 2.475 0.99 5 2 C5 2.99 5 3.98 5 5 C4.34 5 3.68 5 3 5 C2.34 6.32 1.68 7.64 1 9 C-0.32 7.68 -1.64 6.36 -3 5 C-2.01 3.35 -1.02 1.7 0 0 Z " fill="#7C3431" transform="translate(290,289)"/>
<path d="M0 0 C2 4 2 4 1.8125 6.5625 C0.95027053 9.14918841 0.07804617 10.28335317 -2 12 C-2.99 11.34 -3.98 10.68 -5 10 C-3.35 6.7 -1.7 3.4 0 0 Z " fill="#72322D" transform="translate(405,442)"/>
<path d="M0 0 C0.33 0.66 0.66 1.32 1 2 C2.66128463 2.35919668 4.32900023 2.68911632 6 3 C8.3125 4.0625 8.3125 4.0625 10 5 C10 5.66 10 6.32 10 7 C12.97 7.495 12.97 7.495 16 8 C15.01 8.66 14.02 9.32 13 10 C6.07 6.04 6.07 6.04 -1 2 C-0.67 1.34 -0.34 0.68 0 0 Z " fill="#743C34" transform="translate(295,298)"/>
<path d="M0 0 C4.455 0.99 4.455 0.99 9 2 C9 2.66 9 3.32 9 4 C9.639375 4.103125 10.27875 4.20625 10.9375 4.3125 C11.618125 4.539375 12.29875 4.76625 13 5 C13.33 5.99 13.66 6.98 14 8 C8.76481294 6.56032356 4.36973991 4.18303389 0 1 C0 0.67 0 0.34 0 0 Z " fill="#D4BDB0" transform="translate(276,307)"/>
<path d="M0 0 C0.66 0.33 1.32 0.66 2 1 C1.45276317 4.37462715 0.9451 6.08235 -1 9 C-1.66 9 -2.32 9 -3 9 C-3.66 10.98 -4.32 12.96 -5 15 C-5.66 14.67 -6.32 14.34 -7 14 C-4.69 9.38 -2.38 4.76 0 0 Z " fill="#713932" transform="translate(506,243)"/>
<path d="M0 0 C0.33 0.66 0.66 1.32 1 2 C1.66 2 2.32 2 3 2 C3.33 2.66 3.66 3.32 4 4 C4.66 4 5.32 4 6 4 C5.48967606 7.77639718 4.79233071 9.44722581 2 12 C1.66269158 10.56342755 1.33030409 9.12569907 1 7.6875 C0.814375 6.88699219 0.62875 6.08648437 0.4375 5.26171875 C0 3 0 3 0 0 Z " fill="#E1CBBD" transform="translate(449,338)"/>
<path d="M0 0 C2.70438996 0.36405249 3.74406383 0.68142682 5.484375 2.84765625 C5.90203125 3.57855469 6.3196875 4.30945313 6.75 5.0625 C7.39195312 6.16271484 7.39195312 6.16271484 8.046875 7.28515625 C8.36140625 7.85105469 8.6759375 8.41695313 9 9 C8.01 9 7.02 9 6 9 C5.34 8.34 4.68 7.68 4 7 C3.01 7.495 3.01 7.495 2 8 C1.33333333 5.33333333 0.66666667 2.66666667 0 0 Z " fill="#763835" transform="translate(344,482)"/>
<path d="M0 0 C5.45479185 0.56820748 9.91059256 1.94637945 15 4 C11.46905698 5.20220203 8.87101018 4.79532349 5.25 4.0625 C4.26515625 3.86785156 3.2803125 3.67320312 2.265625 3.47265625 C1.51796875 3.31667969 0.7703125 3.16070312 0 3 C0 2.01 0 1.02 0 0 Z " fill="#E1C5B7" transform="translate(293,321)"/>
<path d="M0 0 C0.33 0 0.66 0 1 0 C1.49940808 6.11774896 0.24900602 9.02495953 -3 14 C-4.1484375 12.328125 -4.1484375 12.328125 -5 10 C-4.1015625 7.421875 -4.1015625 7.421875 -2.625 4.75 C-2.14289063 3.85796875 -1.66078125 2.9659375 -1.1640625 2.046875 C-0.77992188 1.37140625 -0.39578125 0.6959375 0 0 Z " fill="#D7BFAE" transform="translate(447,312)"/>
<path d="M0 0 C0 0.99 0 1.98 0 3 C-0.33 3.33 -0.66 3.66 -1 4 C-0.91015699 5.85772162 -0.75388139 7.71247985 -0.5625 9.5625 C-0.46066406 10.57441406 -0.35882813 11.58632813 -0.25390625 12.62890625 C-0.17011719 13.41136719 -0.08632813 14.19382812 0 15 C-0.99 15.495 -0.99 15.495 -2 16 C-2.1953125 13.94921875 -2.390625 11.8984375 -2.5859375 9.84765625 C-2.79089844 8.93306641 -2.79089844 8.93306641 -3 8 C-3.66 7.67 -4.32 7.34 -5 7 C-5 5.68 -5 4.36 -5 3 C-2.5 1.25 -2.5 1.25 0 0 Z " fill="#DED0C1" transform="translate(460,295)"/>
<path d="M0 0 C2.45281911 3.67922867 2.26823919 5.62259351 2.25 10 C2.25515625 11.2375 2.2603125 12.475 2.265625 13.75 C2 17 2 17 0 20 C-1.01593448 13.11422188 -0.83854735 6.90188971 0 0 Z " fill="#D2BCAE" transform="translate(333,430)"/>
<path d="M0 0 C0.33 0 0.66 0 1 0 C1 2.31 1 4.62 1 7 C-0.98 7.99 -0.98 7.99 -3 9 C-2.67 10.32 -2.34 11.64 -2 13 C-3.32 13 -4.64 13 -6 13 C-4.31326082 8.50202887 -2.18326108 4.27113698 0 0 Z " fill="#D7BBAE" transform="translate(407,391)"/>
<path d="M0 0 C0.99 0.33 1.98 0.66 3 1 C1.02 4.96 -0.96 8.92 -3 13 C-3.66 11.68 -4.32 10.36 -5 9 C-4.360625 8.071875 -3.72125 7.14375 -3.0625 6.1875 C-0.91377907 3.15780057 -0.91377907 3.15780057 0 0 Z " fill="#6D312A" transform="translate(456,289)"/>
<path d="M0 0 C4.35522853 0.50642192 7.44239635 1.38411497 11 4 C11 4.66 11 5.32 11 6 C6.87248551 5.39301257 3.6678852 3.96189209 0 2 C0 1.34 0 0.68 0 0 Z " fill="#6D3C36" transform="translate(282,313)"/>
<path d="M0 0 C1.45655759 4.44787719 0.03500783 6.85461367 -2 11 C-2.99 12.485 -2.99 12.485 -4 14 C-4.66 14 -5.32 14 -6 14 C-4.50829734 9.0276578 -2.39542583 4.58154261 0 0 Z " fill="#784138" transform="translate(484,286)"/>
<path d="M0 0 C3.4557601 1.15192003 4.19828537 1.91134634 6 5 C6.1875 7.75 6.1875 7.75 6 10 C5.01 10.495 5.01 10.495 4 11 C3.33125616 9.35500958 2.66505926 7.70898352 2 6.0625 C1.443125 4.68771484 1.443125 4.68771484 0.875 3.28515625 C0 1 0 1 0 0 Z " fill="#DBBFB1" transform="translate(232,279)"/>
<path d="M0 0 C2.72106694 2.72106694 2.60655572 4.84776311 3.125 8.625 C3.29257812 9.81351562 3.46015625 11.00203125 3.6328125 12.2265625 C3.75398438 13.14179688 3.87515625 14.05703125 4 15 C2 14 2 14 0.875 10.875 C0.02244801 7.09941262 -0.15729024 3.85361088 0 0 Z " fill="#6B332E" transform="translate(343,453)"/>
<path d="M0 0 C0.99 0.33 1.98 0.66 3 1 C3.9765625 7.0546875 3.9765625 7.0546875 4 9 C3.34 9.66 2.68 10.32 2 11 C0.19769832 7.17010894 -0.19622241 4.21878192 0 0 Z " fill="#DDC6B7" transform="translate(346,456)"/>
<path d="M0 0 C0.99 0.66 1.98 1.32 3 2 C1.95125002 4.62187494 1.35068687 5.79371361 -1.125 7.25 C-1.74375 7.4975 -2.3625 7.745 -3 8 C-2.25 2.25 -2.25 2.25 0 0 Z " fill="#773331" transform="translate(460,335)"/>
<path d="M0 0 C0.33 0 0.66 0 1 0 C0.91253716 1.43861294 0.80434652 2.87597508 0.6875 4.3125 C0.62949219 5.11300781 0.57148438 5.91351563 0.51171875 6.73828125 C-0.08838825 9.39066259 -0.85708967 10.36503879 -3 12 C-3.66 12 -4.32 12 -5 12 C-3.68938409 7.76570244 -2.05643741 3.92592596 0 0 Z " fill="#D6BAAC" transform="translate(484,239)"/>
<path d="M0 0 C0.66 0.99 1.32 1.98 2 3 C0.77065985 6.68802044 -0.93859378 7.72356973 -4 10 C-3.835 9.4225 -3.67 8.845 -3.5 8.25 C-2.85537969 5.73335631 -2.85537969 5.73335631 -3 2 C-2.01 1.34 -1.02 0.68 0 0 Z " fill="#D7D3C1" transform="translate(490,238)"/>
<path d="M0 0 C5.875 4.625 5.875 4.625 7 8 C3.9168649 6.80100302 0.93720508 5.52299523 -2 4 C-2 3.34 -2 2.68 -2 2 C-1.34 2 -0.68 2 0 2 C0 1.34 0 0.68 0 0 Z " fill="#753331" transform="translate(323,351)"/>
<path d="M0 0 C1 3 1 3 0.22265625 5.04296875 C-0.16019531 5.75066406 -0.54304688 6.45835937 -0.9375 7.1875 C-1.31777344 7.90292969 -1.69804687 8.61835938 -2.08984375 9.35546875 C-2.54037109 10.16951172 -2.54037109 10.16951172 -3 11 C-3.66 11 -4.32 11 -5 11 C-4.5020163 7.26512223 -4.12508244 5.18762365 -2 2 C-1.34 2 -0.68 2 0 2 C0 1.34 0 0.68 0 0 Z " fill="#733932" transform="translate(475,282)"/>
<path d="M0 0 C1.5625 1.8125 1.5625 1.8125 3 4 C2 7 2 7 -1.0625 8.6875 C-2.031875 9.120625 -3.00125 9.55375 -4 10 C-2.66666667 6.66666667 -1.33333333 3.33333333 0 0 Z " fill="#D2BFAF" transform="translate(492,251)"/>
<path d="M0 0 C0.66 0.66 1.32 1.32 2 2 C1.875 4.5 1.875 4.5 1 7 C-1.0625 8.3125 -1.0625 8.3125 -3 9 C-3.75 6.75 -3.75 6.75 -4 4 C-2.0625 1.6875 -2.0625 1.6875 0 0 Z " fill="#D9D0C0" transform="translate(384,442)"/>
<path d="M0 0 C0.99 0.33 1.98 0.66 3 1 C1.94124926 4.40312738 0.99097846 7.01353231 -1 10 C-1.66 10 -2.32 10 -3 10 C-2.01 6.7 -1.02 3.4 0 0 Z " fill="#733833" transform="translate(396,406)"/>
<path d="M0 0 C2 3 2 3 1.75 5.4375 C1.05282249 7.81952314 0.20252143 9.83546142 -1 12 C-2.125 10.375 -2.125 10.375 -3 8 C-2.25465624 5.13329322 -1.32208367 2.64416734 0 0 Z " fill="#D2BEAD" transform="translate(457,320)"/>
<path d="M0 0 C0.66 0.66 1.32 1.32 2 2 C0.35 5.3 -1.3 8.6 -3 12 C-3.33 12 -3.66 12 -4 12 C-4 10.02 -4 8.04 -4 6 C-3.34 6 -2.68 6 -2 6 C-1.855625 5.195625 -1.71125 4.39125 -1.5625 3.5625 C-1 1 -1 1 0 0 Z " fill="#723731" transform="translate(439,324)"/>
<path d="M0 0 C1.485 0.99 1.485 0.99 3 2 C3.6875 5.625 3.6875 5.625 4 9 C3.01 9 2.02 9 1 9 C0.67 6.03 0.34 3.06 0 0 Z " fill="#E1C6B9" transform="translate(227,259)"/>
<path d="M0 0 C3.67230705 3.07999946 4.56802365 5.2482602 5 10 C4.34 10 3.68 10 3 10 C0.96564469 6.27034861 0 4.33094958 0 0 Z " fill="#6E3A33" transform="translate(350,476)"/>
<path d="M0 0 C0.66 0.33 1.32 0.66 2 1 C2 3.31 2 5.62 2 8 C0.33333333 8 -1.33333333 8 -3 8 C-1.125 2.25 -1.125 2.25 0 0 Z " fill="#D6C3B5" transform="translate(375,454)"/>
<path d="M0 0 C1.32 0 2.64 0 4 0 C6.09230769 4.43076923 6.09230769 4.43076923 5.625 7.3125 C5.41875 7.869375 5.2125 8.42625 5 9 C2.38952199 7.694761 2.31933577 6.64173426 1.375 3.9375 C1.11460937 3.20402344 0.85421875 2.47054688 0.5859375 1.71484375 C0.39257812 1.14894531 0.19921875 0.58304687 0 0 Z " fill="#794A42" transform="translate(342,348)"/>
<path d="M0 0 C1.73662334 3.22515763 2.8905928 6.51329166 4 10 C3.34 10.66 2.68 11.32 2 12 C0.9375 10.125 0.9375 10.125 0 8 C0.33 7.34 0.66 6.68 1 6 C0.34 6 -0.32 6 -1 6 C-0.67 4.02 -0.34 2.04 0 0 Z " fill="#D6BDAE" transform="translate(274,274)"/>
<path d="M0 0 C1.42944945 2.35438733 2.08661261 3.48032433 1.625 6.25 C1.41875 6.8275 1.2125 7.405 1 8 C-0.65 8.33 -2.3 8.66 -4 9 C-4 8.01 -4 7.02 -4 6 C-3.34 6 -2.68 6 -2 6 C-1.34 4.02 -0.68 2.04 0 0 Z " fill="#CFB8A7" transform="translate(342,456)"/>
<path d="M0 0 C0.33 0 0.66 0 1 0 C1.33 3.63 1.66 7.26 2 11 C1.01 11 0.02 11 -1 11 C-1.125 3.375 -1.125 3.375 0 0 Z " fill="#DCC1B3" transform="translate(340,445)"/>
<path d="M0 0 C1.670625 0.061875 1.670625 0.061875 3.375 0.125 C3.375 1.445 3.375 2.765 3.375 4.125 C-1.08 3.135 -1.08 3.135 -5.625 2.125 C-3.625 0.125 -3.625 0.125 0 0 Z " fill="#D5C1B1" transform="translate(313.625,320.875)"/>
<path d="M0 0 C0.33 0 0.66 0 1 0 C0.67 2.97 0.34 5.94 0 9 C-1.32 9.33 -2.64 9.66 -4 10 C-2.8905928 6.51329166 -1.73662334 3.22515763 0 0 Z " fill="#DAC2B2" transform="translate(371,462)"/>
<path d="M0 0 C1.125 1.75 1.125 1.75 2 4 C1.125 6.0625 1.125 6.0625 0 8 C0 8.99 0 9.98 0 11 C-0.66 11 -1.32 11 -2 11 C-3.14947895 7.44706507 -3.0868937 6.20023331 -1.5625 2.6875 C-1.046875 1.800625 -0.53125 0.91375 0 0 Z " fill="#D8B8AD" transform="translate(454,298)"/>
<path d="M0 0 C0 3.69418201 -1.28179295 5.77836178 -3 9 C-5 6 -5 6 -4.875 3.9375 C-3.7413007 1.42716583 -2.51381062 0.97308798 0 0 Z " fill="#DCBFB3" transform="translate(390,470)"/>
<path d="M0 0 C2.43542455 1.90598443 3.00158196 3.00596275 3.8125 6.0625 C3.874375 7.031875 3.93625 8.00125 4 9 C3.34 9.66 2.68 10.32 2 11 C0.80712589 7.12315913 0 4.08378077 0 0 Z " fill="#DDBCB2" transform="translate(353,334)"/>
<path d="M0 0 C0.66 0.66 1.32 1.32 2 2 C0.35 5.3 -1.3 8.6 -3 12 C-3.33 12 -3.66 12 -4 12 C-4 10.35 -4 8.7 -4 7 C-3.34 7 -2.68 7 -2 7 C-1.855625 6.21625 -1.71125 5.4325 -1.5625 4.625 C-1 2 -1 2 0 0 Z " fill="#6F392F" transform="translate(477,249)"/>
<path d="M0 0 C4.875 4.75 4.875 4.75 6 7 C5.34 7.66 4.68 8.32 4 9 C1.47740939 7.02579865 1.0070192 6.03254358 0.3125 2.8125 C0.209375 1.884375 0.10625 0.95625 0 0 Z " fill="#D7BFB1" transform="translate(366,488)"/>
<path d="M0 0 C0.66 0.99 1.32 1.98 2 3 C1.125 5.6875 1.125 5.6875 0 8 C-0.99 8 -1.98 8 -3 8 C-1.125 2.25 -1.125 2.25 0 0 Z " fill="#D9BDAF" transform="translate(448,338)"/>
<path d="M0 0 C0.66 0.99 1.32 1.98 2 3 C1.34 3 0.68 3 0 3 C0.33 4.98 0.66 6.96 1 9 C0.01 9.495 0.01 9.495 -1 10 C-2.25 3.375 -2.25 3.375 0 0 Z " fill="#D7BCAF" transform="translate(366,472)"/>
<path d="M0 0 C0.66 0.66 1.32 1.32 2 2 C1.875 4 1.875 4 1 6 C-1.0625 7.25 -1.0625 7.25 -3 8 C-1.125 2.25 -1.125 2.25 0 0 Z " fill="#753532" transform="translate(409,434)"/>
<path d="M0 0 C2 3 2 3 2 6 C1.34 6 0.68 6 0 6 C-0.33 6.99 -0.66 7.98 -1 9 C-1.66 8.67 -2.32 8.34 -3 8 C-1.125 2.25 -1.125 2.25 0 0 Z " fill="#793735" transform="translate(413,426)"/>
<path d="M0 0 C1.1875 1.625 1.1875 1.625 2 4 C0.625 7.25 0.625 7.25 -1 10 C-1.98965019 7.03104944 -2.23779528 5.0913386 -2 2 C-1.34 1.34 -0.68 0.68 0 0 Z " fill="#75332F" transform="translate(414,371)"/>
<path d="M0 0 C2.64 0.33 5.28 0.66 8 1 C8 2.32 8 3.64 8 5 C2.25 3.125 2.25 3.125 0 2 C0 1.34 0 0.68 0 0 Z " fill="#DCC3B6" transform="translate(272,333)"/>
<path d="M0 0 C2.5 2.3125 2.5 2.3125 5 5 C5 5.99 5 6.98 5 8 C3.0625 7.375 3.0625 7.375 1 6 C0.25 2.875 0.25 2.875 0 0 Z " fill="#713330" transform="translate(248,312)"/>
<path d="M0 0 C0.66 0.33 1.32 0.66 2 1 C1.34 2.98 0.68 4.96 0 7 C-1.32 6.34 -2.64 5.68 -4 5 C-2 2 -2 2 0 0 Z " fill="#E4BEB3" transform="translate(374,498)"/>
<path d="M0 0 C2.35953094 2.35953094 2.49141413 3.77895617 3 7 C0.03 6.505 0.03 6.505 -3 6 C-2.67 4.68 -2.34 3.36 -2 2 C-1.34 2 -0.68 2 0 2 C0 1.34 0 0.68 0 0 Z " fill="#D0B9AA" transform="translate(354,464)"/>
<path d="M0 0 C6.52307692 0.61538462 6.52307692 0.61538462 8.9375 2.5625 C9.288125 3.036875 9.63875 3.51125 10 4 C5.78087253 3.5205537 3.20336822 2.83374881 0 0 Z " fill="#773E37" transform="translate(310,308)"/>
<path d="M0 0 C-0.75 4.75 -0.75 4.75 -3 7 C-3 5.35 -3 3.7 -3 2 C-4.32 1.67 -5.64 1.34 -7 1 C-4.50935112 0.31292445 -2.62113708 0 0 0 Z " fill="#DAC1B4" transform="translate(500,229)"/>
<path d="M0 0 C0.33 0.99 0.66 1.98 1 3 C1.66 3.33 2.32 3.66 3 4 C3 5.65 3 7.3 3 9 C2.01 9 1.02 9 0 9 C-1.125 3.375 -1.125 3.375 0 0 Z " fill="#D1C9B6" transform="translate(390,452)"/>
<path d="M0 0 C0.33 0 0.66 0 1 0 C1.36923077 5.53846154 1.36923077 5.53846154 -0.5 7.875 C-1.2425 8.431875 -1.2425 8.431875 -2 9 C-3 6 -3 6 -1.5625 2.8125 C-1.046875 1.884375 -0.53125 0.95625 0 0 Z " fill="#D6B7AA" transform="translate(383,438)"/>
<path d="M0 0 C2.97 0.99 5.94 1.98 9 3 C9 3.33 9 3.66 9 4 C6.69 4 4.38 4 2 4 C1.34 2.68 0.68 1.36 0 0 Z " fill="#713832" transform="translate(276,337)"/>
<path d="M0 0 C3.465 1.98 3.465 1.98 7 4 C5.02 4.99 5.02 4.99 3 6 C0 2.25 0 2.25 0 0 Z " fill="#763830" transform="translate(265,330)"/>
<path d="M0 0 C2.31 0.66 4.62 1.32 7 2 C6.01 2.99 5.02 3.98 4 5 C3.01 4.67 2.02 4.34 1 4 C0.3125 1.9375 0.3125 1.9375 0 0 Z " fill="#DABCAE" transform="translate(315,311)"/>
<path d="M0 0 C2.97 0 5.94 0 9 0 C8.34 1.65 7.68 3.3 7 5 C6.34 4.01 5.68 3.02 5 2 C2.43717258 1.27034634 2.43717258 1.27034634 0 1 C0 0.67 0 0.34 0 0 Z " fill="#EAC7BC" transform="translate(504,229)"/>
<path d="M0 0 C0.99 0.33 1.98 0.66 3 1 C3 1.99 3 2.98 3 4 C3.66 4.66 4.32 5.32 5 6 C4.01 6.66 3.02 7.32 2 8 C0.23537317 4.91190305 0 3.76687864 0 0 Z " fill="#E0CDBD" transform="translate(341,468)"/>
<path d="M0 0 C0.33 0 0.66 0 1 0 C1 1.98 1 3.96 1 6 C-0.98 6.99 -0.98 6.99 -3 8 C-1.125 2.25 -1.125 2.25 0 0 Z " fill="#DCBBB1" transform="translate(413,407)"/>
<path d="M0 0 C0.33 0 0.66 0 1 0 C1.125 2.875 1.125 2.875 1 6 C0.34 6.66 -0.32 7.32 -1 8 C-1.66 7.34 -2.32 6.68 -3 6 C-2.01 4.02 -1.02 2.04 0 0 Z " fill="#D4BDAE" transform="translate(400,405)"/>
<path d="M0 0 C1.64350079 3.28700157 2.41321669 5.47930015 3 9 C2.01 9 1.02 9 0 9 C0 6.03 0 3.06 0 0 Z " fill="#D3C1AF" transform="translate(348,386)"/>
<path d="M0 0 C0.66 0.99 1.32 1.98 2 3 C1.125 5.6875 1.125 5.6875 0 8 C-1.125 6.25 -1.125 6.25 -2 4 C-1.125 1.75 -1.125 1.75 0 0 Z " fill="#7C4B44" transform="translate(429,369)"/>
<path d="M0 0 C1.65 0 3.3 0 5 0 C4.1875 1.9375 4.1875 1.9375 3 4 C2.01 4.33 1.02 4.66 0 5 C-0.33 4.01 -0.66 3.02 -1 2 C-0.67 1.34 -0.34 0.68 0 0 Z " fill="#773933" transform="translate(419,359)"/>
<path d="M0 0 C0.6875 1.625 0.6875 1.625 1 4 C-0.4375 7.25 -0.4375 7.25 -2 10 C-2.66 10 -3.32 10 -4 10 C-2.66666667 6.66666667 -1.33333333 3.33333333 0 0 Z " fill="#D4B2A3" transform="translate(428,349)"/>
<path d="M0 0 C2.16874252 0.50603992 3.99967627 0.99983813 6 2 C6 3.65 6 5.3 6 7 C1.125 2.25 1.125 2.25 0 0 Z " fill="#764039" transform="translate(347,326)"/>
<path d="M0 0 C2.3431213 0.25561323 4.67843403 0.59270772 7 1 C7.33 1.66 7.66 2.32 8 3 C2.25 3.125 2.25 3.125 0 2 C0 1.34 0 0.68 0 0 Z " fill="#6B3532" transform="translate(310,324)"/>
<path d="M0 0 C0.33 0 0.66 0 1 0 C0.67 2.64 0.34 5.28 0 8 C-0.99 8 -1.98 8 -3 8 C-1.125 2.25 -1.125 2.25 0 0 Z " fill="#DBBCAF" transform="translate(476,283)"/>
<path d="M0 0 C0.99 0.33 1.98 0.66 3 1 C2.34 2.65 1.68 4.3 1 6 C0.01 5.67 -0.98 5.34 -2 5 C-1.34 3.35 -0.68 1.7 0 0 Z " fill="#743531" transform="translate(468,265)"/>
<path d="M0 0 C2.97 0 5.94 0 9 0 C5 2 5 2 2 3 C1.34 3.66 0.68 4.32 0 5 C0 3.35 0 1.7 0 0 Z " fill="#E8CABC" transform="translate(222,229)"/>
</svg>
